<?xml version="1.0" encoding="utf-8"?>
<!-- Generator: Adobe Illustrator 16.0.0, SVG Export Plug-In . SVG Version: 6.00 Build 0)  -->
<!DOCTYPE svg PUBLIC "-//W3C//DTD SVG 1.0//EN" "http://www.w3.org/TR/2001/REC-SVG-20010904/DTD/svg10.dtd">
<svg version="1.0" id="Layer_1" xmlns="http://www.w3.org/2000/svg" xmlns:xlink="http://www.w3.org/1999/xlink" x="0px" y="0px"
	 width="64px" height="64px" viewBox="0 0 64 64" enable-background="new 0 0 64 64" xml:space="preserve">
<g>
	<path fill="#231F20" d="M24.549,36.074l-14-3.999c-1.051-0.293-2.168,0.311-2.473,1.375c-0.303,1.062,0.312,2.167,1.375,2.472l14,4
		C23.635,39.973,23.818,40,24.002,40c0.869,0,1.67-0.574,1.922-1.453C26.227,37.488,25.611,36.379,24.549,36.074z"/>
	<path fill="#231F20" d="M24.549,28.077l-14-4c-1.051-0.291-2.168,0.311-2.473,1.375c-0.303,1.061,0.312,2.168,1.375,2.473l14,4
		c0.184,0.051,0.367,0.076,0.551,0.076c0.869,0,1.67-0.572,1.922-1.451C26.227,29.489,25.611,28.382,24.549,28.077z"/>
	<path fill="#231F20" d="M9.451,19.923l14,4c0.184,0.051,0.367,0.076,0.551,0.076c0.869,0,1.67-0.572,1.922-1.451
		c0.303-1.061-0.312-2.168-1.375-2.473l-14-4c-1.051-0.293-2.168,0.311-2.473,1.375C7.773,18.511,8.389,19.618,9.451,19.923z"/>
	<path fill="#231F20" d="M53.45,32.075l-13.999,3.999c-1.062,0.305-1.678,1.414-1.375,2.473C38.328,39.426,39.129,40,39.998,40
		c0.184,0,0.367-0.027,0.551-0.078l13.999-4c1.062-0.305,1.678-1.41,1.375-2.472C55.618,32.386,54.503,31.782,53.45,32.075z"/>
	<path fill="#231F20" d="M39.998,32.001c0.184,0,0.367-0.025,0.551-0.076l13.999-4c1.062-0.305,1.678-1.412,1.375-2.473
		c-0.305-1.064-1.42-1.664-2.473-1.375l-13.999,4c-1.062,0.305-1.678,1.412-1.375,2.473C38.328,31.429,39.129,32.001,39.998,32.001z
		"/>
	<path fill="#231F20" d="M39.998,23.999c0.184,0,0.367-0.025,0.551-0.076l13.999-4c1.062-0.305,1.678-1.412,1.375-2.473
		c-0.305-1.064-1.42-1.666-2.473-1.375l-13.999,4c-1.062,0.305-1.678,1.412-1.375,2.473C38.328,23.427,39.129,23.999,39.998,23.999z
		"/>
	<path fill="#231F20" d="M63.218,0.415c-0.492-0.377-1.133-0.508-1.734-0.346L32,7.931L2.516,0.069
		C1.914-0.095,1.273,0.036,0.781,0.415S0,1.38,0,2.001V54c0,0.906,0.609,1.699,1.484,1.934l30,8C31.654,63.977,31.826,64,32,64
		s0.346-0.023,0.516-0.066l29.999-8c0.875-0.234,1.484-1.027,1.484-1.934V2.001C63.999,1.38,63.71,0.794,63.218,0.415z
		 M59.999,44.465L34,51.398V11.536l25.999-6.932V44.465z M4,4.604l26,6.932v39.862L4,44.465V4.604z M4,48.602l26,6.934v3.863
		L4,52.465V48.602z M34,59.398v-3.863l25.999-6.934v3.863L34,59.398z"/>
</g>
</svg>
