<?xml version="1.0" encoding="utf-8"?>
<!-- Generator: Adobe Illustrator 16.0.0, SVG Export Plug-In . SVG Version: 6.00 Build 0)  -->
<!DOCTYPE svg PUBLIC "-//W3C//DTD SVG 1.0//EN" "http://www.w3.org/TR/2001/REC-SVG-20010904/DTD/svg10.dtd">
<svg version="1.0" id="Layer_1" xmlns="http://www.w3.org/2000/svg" xmlns:xlink="http://www.w3.org/1999/xlink" x="0px" y="0px"
	 width="64px" height="64px" viewBox="0 0 64 64" enable-background="new 0 0 64 64" xml:space="preserve">
<g>
	<path fill="#231F20" d="M60,47.51C51.762,42.742,42.203,40,32,40s-19.762,2.742-28,7.51c0,0-4,1.959-4,5.49v7c0,2.211,1.789,4,4,4
		h56c2.211,0,4-1.789,4-4v-7C64,49.312,60,47.51,60,47.51z M32,44c4.119,0,8.113,0.508,11.955,1.416C40.775,48.256,36.6,50,32,50
		s-8.775-1.746-11.957-4.586C23.885,44.508,27.881,44,32,44z M60,58c0,1.105-0.895,2-2,2H6c-1.105,0-2-0.895-2-2v-4
		c0-2,1-2.436,1.508-2.738c3.172-1.883,6.57-3.42,10.129-4.602C19.662,51.154,25.49,54,32,54c6.506,0,12.316-2.854,16.342-7.346
		c3.598,1.195,7.031,2.75,10.234,4.658C59.057,51.598,60,52,60,54V58z"/>
	<path fill="#231F20" d="M32,36c7.732,0,14-6.268,14-14V12c0-6.627-5.373-12-12-12h-4c-6.627,0-12,5.373-12,12v10
		C18,29.732,24.268,36,32,36z M30,4h4c4.418,0,8,3.582,8,8H22C22,7.582,25.582,4,30,4z M22,16h20v6c0,5.523-4.477,10-10,10
		s-10-4.477-10-10V16z"/>
</g>
</svg>
