<?xml version="1.0" encoding="utf-8"?>
<!-- Generator: Adobe Illustrator 16.0.0, SVG Export Plug-In . SVG Version: 6.00 Build 0)  -->
<!DOCTYPE svg PUBLIC "-//W3C//DTD SVG 1.0//EN" "http://www.w3.org/TR/2001/REC-SVG-20010904/DTD/svg10.dtd">
<svg version="1.0" id="Layer_1" xmlns="http://www.w3.org/2000/svg" xmlns:xlink="http://www.w3.org/1999/xlink" x="0px" y="0px"
	 width="64px" height="64px" viewBox="0 0 64 64" enable-background="new 0 0 64 64" xml:space="preserve">
<path fill="#231F20" d="M54,18H44v-6c0-6.627-5.373-12-12-12S20,5.373,20,12v6H10c-1.105,0-2,0.895-2,2v2v38c0,2.211,1.789,4,4,4h40
	c2.211,0,4-1.789,4-4V22v-2C56,18.895,55.105,18,54,18z M24,12c0-4.418,3.582-8,8-8s8,3.582,8,8v6H24V12z M52,58
	c0,1.105-0.895,2-2,2H14c-1.105,0-2-0.895-2-2v-2h40V58z M52,52H12V22h8v2c0,1.105,0.895,2,2,2s2-0.895,2-2v-2h16v2
	c0,1.105,0.895,2,2,2s2-0.895,2-2v-2h8V52z"/>
</svg>
