<?xml version="1.0" encoding="utf-8"?>
<!-- Generator: Adobe Illustrator 16.0.0, SVG Export Plug-In . SVG Version: 6.00 Build 0)  -->
<!DOCTYPE svg PUBLIC "-//W3C//DTD SVG 1.0//EN" "http://www.w3.org/TR/2001/REC-SVG-20010904/DTD/svg10.dtd">
<svg version="1.0" id="Layer_1" xmlns="http://www.w3.org/2000/svg" xmlns:xlink="http://www.w3.org/1999/xlink" x="0px" y="0px"
	 width="64px" height="64px" viewBox="0 0 64 64" enable-background="new 0 0 64 64" xml:space="preserve">
<g>
	<path fill="#231F20" d="M60.775,16c0,0-44.4,0-45.275,0s-1.113-1.055-1.113-1.055L12.305,3.502C11.812,0.969,10.469,0,8,0H2
		C0.895,0,0,0.895,0,2s0.895,2,2,2c0,0,4.625,0,5.531,0s1.006,1.146,1.006,1.146l7.154,39.332l2.221,9.154
		C16.742,54.729,16,56.275,16,58c0,3.309,2.691,6,6,6c2.604,0,4.803-1.678,5.631-4h12.738c0.828,2.322,3.027,4,5.631,4
		c3.309,0,6-2.691,6-6s-2.691-6-6-6c-2.604,0-4.803,1.678-5.631,4H27.631c-0.828-2.322-3.027-4-5.631-4
		c-0.062,0-0.119,0.016-0.18,0.018L20.783,48H54c2.812,0,3.75-1.344,4.379-3.562l5.371-23.5C64.354,18.219,64,16,60.775,16z M46,56
		c1.104,0,2,0.896,2,2s-0.896,2-2,2s-2-0.896-2-2S44.896,56,46,56z M24,58c0,1.104-0.896,2-2,2s-2-0.896-2-2s0.896-2,2-2
		S24,56.896,24,58z M59.502,20.977l-4.893,22.012c0,0-0.109,1.012-1.234,1.012S21.5,44,20.531,44c-0.643,0-0.881-0.455-0.979-0.77
		l-0.076-0.293l-3.965-21.801c0,0-0.449-1.137,0.957-1.137s40.844,0,42.094,0S59.502,20.977,59.502,20.977z"/>
	<path fill="#231F20" d="M28,24c-1.105,0-2,0.895-2,2v12c0,1.105,0.895,2,2,2s2-0.895,2-2V26C30,24.895,29.105,24,28,24z"/>
	<path fill="#231F20" d="M38,24c-1.105,0-2,0.895-2,2v12c0,1.105,0.895,2,2,2s2-0.895,2-2V26C40,24.895,39.105,24,38,24z"/>
	<path fill="#231F20" d="M48,24c-1.105,0-2,0.895-2,2v12c0,1.105,0.895,2,2,2s2-0.895,2-2V26C50,24.895,49.105,24,48,24z"/>
</g>
</svg>
